#!OML:ASF H:\Terrain\Patient Classification 1\Animal1\Tuesday\Animal1.ASF
:FULLY-SPECIFIED
:DEGREES
1932
root 2.82104 15.9543 -3.91473 50.7798 -33.3637 2.18764
lowerback 30.6382 0.475351 7.08588
upperback -5.40022 4.68847 5.52447
thorax -23.048 1.38931 0.295947
lowerneck -6.06104 -1.02092 -10.4191
upperneck -28.159 -0.870419 5.39767
head -7.64807 -0.0876247 3.69648
rclavicle -3.81667e-014 -2.54444e-014
rhumerus -92.1652 -12.9262 44.3972
rradius 24.8908
rwrist -69.8441
rhand -60.7137 -287.734
rfingers 7.12502
rthumb -32.831 45.2306
lclavicle -3.81667e-014 -2.54444e-014
lhumerus -92.3618 26.5069 -51.5878
lradius 21.259
lwrist -11.0534
lhand -1.8053 78.5009
lfingers 7.12502
lthumb 23.8601 1332.96
rfemur -78.173 7.07023 22.4543
rtibia 38.999
rfoot -6.23138 -10.1381
rtoes -4.56492
lfemur -71.8464 -11.1307 3.49721
ltibia 62.8272
lfoot 19.0774 2.46996
ltoes 25.4013
1933
root 2.8266 15.9527 -3.91845 50.7348 -33.3792 1.9977
lowerback 30.6588 0.415177 7.07413
upperback -5.29593 4.60776 5.60395
thorax -22.9288 1.37135 0.432197
lowerneck -7.14947 -0.987938 -11.0643
upperneck -27.0865 -0.557722 6.01978
head -7.11692 0.077472 3.96629
rclavicle -4.92986e-014 3.18055e-015
rhumerus -91.7256 -13.0675 43.1622
rradius 24.7196
rwrist -70.2908
rhand -60.3181 -280.269
rfingers 7.12502
rthumb -32.4546 52.617
lclavicle -4.92986e-014 3.18055e-015
lhumerus -93.3558 26.5606 -53.3442
lradius 21.0938
lwrist -11.2185
lhand -3.57745 80.7774
lfingers 7.12502
lthumb 22.1597 1330.47
rfemur -78.0138 7.11756 22.7499
rtibia 38.989
rfoot -5.98352 -9.94321
rtoes -5.93198
lfemur -71.7925 -11.0897 3.62662
ltibia 63.0097
lfoot 19.2977 2.20241
ltoes 29.1109
1934
root 2.83075 15.9476 -3.91959 50.582 -33.2556 2.23098
lowerback 30.4345 0.230465 7.01984
upperback -5.15906 4.44935 6.32957
thorax -22.7296 1.39322 1.38591
lowerneck -6.60589 -0.99572 -13.8917
upperneck -27.4595 -0.471066 6.81932
head -7.35142 0.34044 4.73959
rclavicle -3.02153e-014 1.74931e-014
rhumerus -90.1497 -14.2237 42.7763
rradius 24.3439
rwrist -70.2777
rhand -60.1231 -276.646
rfingers 7.12502
rthumb -32.269 56.2025
lclavicle -3.02153e-014 1.74931e-014
lhumerus -94.6404 25.6366 -52.9198
lradius 21.2754
lwrist -10.2308
lhand -4.57268 82.3312
lfingers 7.12502
lthumb 21.2039 1328.81
rfemur -78.0349 6.92591 22.6793
rtibia 39.0347
rfoot -5.83048 -9.93274
rtoes -5.9975
lfemur -71.9909 -11.3742 3.64774
ltibia 63.1615
lfoot 19.2908 2.40908
ltoes 29.4849
1935
root 2.83764 15.9426 -3.91634 50.4391 -33.3775 2.52042
lowerback 30.1147 0.207823 6.77443
upperback -5.13494 4.2638 6.24285
thorax -22.5375 1.35372 1.50753
lowerneck -5.99961 -0.948628 -13.165
upperneck -28.2019 -0.63665 6.21016
head -7.70001 0.24051 4.44198
rclavicle 1.43125e-014 -1.12115e-013
rhumerus -89.9925 -14.7833 42.8219
rradius 24.1878
rwrist -69.2064
rhand -60.2179 -277.585
rfingers 7.12502
rthumb -32.3593 55.2815
lclavicle 1.43125e-014 -1.12115e-013
lhumerus -94.7636 25.8601 -52.6937
lradius 21.4353
lwrist -9.30492
lhand -5.58998 83.297
lfingers 7.12502
lthumb 20.2265 1327.74
rfemur -78.1453 6.78297 22.3899
rtibia 39.1327
rfoot -5.68116 -9.92205
rtoes -6.97841
lfemur -72.1584 -11.5842 3.39654
ltibia 63.2863
lfoot 19.2785 2.74985
ltoes 28.0993
1936
root 2.84151 15.9434 -3.91789 50.4055 -33.66 2.46366
lowerback 29.8506 0.378874 6.42935
upperback -5.08182 4.13537 5.35571
thorax -22.2403 1.2791 0.723571
lowerneck -7.03041 -0.862695 -9.24875
upperneck -27.9196 -0.674576 4.86923
head -7.42599 -0.073553 3.29331
rclavicle 2.70347e-014 5.88403e-014
rhumerus -91.4135 -14.8059 42.9964
rradius 24.2827
rwrist -67.5799
rhand -60.5615 -283.04
rfingers 7.12502
rthumb -32.6862 49.8943
lclavicle 2.70347e-014 5.88403e-014
lhumerus -94.369 27.7079 -54.5844
lradius 21.2682
lwrist -10.0009
lhand -6.09306 83.7155
lfingers 7.12502
lthumb 19.7429 1327.27
rfemur -78.1613 6.94122 22.2712
rtibia 39.2201
rfoot -5.49992 -9.87124
rtoes -8.57913
lfemur -72.0762 -11.4604 3.16079
ltibia 63.4167
lfoot 19.3909 2.80238
ltoes 25.4454
